# Blender v2.80 (sub 54) OBJ File: ''
# www.blender.org
mtllib table.mtl
o Cube
v 1.572684 2.249838 -2.048931
v 1.791621 2.312311 -2.261568
v 1.572684 2.249838 2.088864
v 1.791621 2.312311 2.261568
v -1.567224 2.249838 -2.048931
v -1.786161 2.312311 -2.261568
v -1.567224 2.249838 2.088864
v -1.786161 2.312311 2.261568
v 1.791621 2.249838 2.261568
v -1.786161 2.249838 2.261568
v 1.791621 2.249838 -2.261568
v -1.786161 2.249838 -2.261568
v 1.572684 2.027627 2.088864
v -1.567224 2.027627 2.088864
v 1.572684 2.027627 -2.048931
v -1.567224 2.027627 -2.048931
v -1.786161 2.312311 -2.044324
v -1.786161 2.312311 2.088117
v 1.791621 2.249838 -2.044324
v 1.791621 2.249838 2.088117
v -1.786161 2.249838 2.088117
v -1.786161 2.249838 -2.044324
v 1.791621 2.312311 2.088117
v 1.791621 2.312311 -2.044324
v 1.572684 2.249838 -1.850195
v 1.572684 2.249838 1.930190
v -1.567224 2.249838 1.930190
v -1.567224 2.249838 -1.850195
v 1.572684 2.027627 -1.850195
v 1.572684 2.027627 1.930190
v -1.567224 2.027627 1.930190
v -1.567224 2.027627 -1.850195
v 1.434508 2.312311 -2.261568
v -1.478704 2.312311 -2.261568
v 1.434508 2.249838 2.261568
v -1.478704 2.249838 2.261568
v -1.478704 2.312311 2.261568
v 1.434508 2.312311 2.261568
v -1.478704 2.249838 -2.261568
v 1.434508 2.249838 -2.261568
v 1.259277 2.249838 2.088864
v -1.297395 2.249838 2.088864
v -1.297395 2.249838 -2.048931
v 1.259277 2.249838 -2.048931
v 1.259277 2.027627 2.088864
v -1.297395 2.027627 2.088864
v -1.297395 2.027627 -2.048931
v 1.259277 2.027627 -2.048931
v -1.297395 2.027627 -1.850195
v 1.259277 2.027627 -1.850195
v -1.297395 2.027627 1.930190
v 1.259277 2.027627 1.930190
v 1.434508 2.312311 -2.044324
v -1.478704 2.312311 -2.044324
v 1.434508 2.312311 2.088117
v -1.478704 2.312311 2.088117
v -1.351361 0.030257 2.057130
v -1.513258 0.030257 2.057130
v 1.506284 0.030257 1.963807
v 1.506284 0.030257 2.055247
v -1.513258 0.030257 -1.889942
v -1.513258 0.030257 -2.009184
v 1.321958 0.030257 -2.009184
v 1.510002 0.030257 -2.009184
v 1.510002 0.030257 -1.889942
v -1.513258 0.030257 1.961925
v 1.321958 0.030257 -1.889942
v 1.325676 0.030257 1.963807
v 1.325676 0.030257 2.055247
v -1.351361 0.030257 -2.009184
v -1.351361 0.030257 -1.889942
v -1.351361 0.030257 1.961925
vt 0.614534 0.230750
vt 0.614534 0.230750
vt 0.614534 0.239535
vt 0.614534 0.239535
vt 0.375000 0.478516
vt 0.375000 0.500000
vt 0.625000 0.500000
vt 0.625000 0.478516
vt 0.375000 0.737993
vt 0.375000 0.750000
vt 0.625000 0.750000
vt 0.625000 0.737993
vt 0.600047 0.990413
vt 0.600047 1.000000
vt 0.625000 1.000000
vt 0.625000 0.990413
vt 0.125000 0.740413
vt 0.125000 0.750000
vt 0.375000 0.750000
vt 0.375000 0.740413
vt 0.625000 0.725046
vt 0.625000 0.750000
vt 0.875000 0.750000
vt 0.875000 0.725046
vt 0.594849 0.239535
vt 0.603516 0.250000
vt 0.625000 0.250000
vt 0.385465 0.230750
vt 0.375000 0.240413
vt 0.375000 0.250000
vt 0.385465 0.239535
vt 0.614534 0.021468
vt 0.625000 0.012007
vt 0.625000 0.000000
vt 0.614534 0.010465
vt 0.408330 0.010465
vt 0.399953 0.000000
vt 0.375000 0.000000
vt 0.385465 0.010465
vt 0.594849 0.021468
vt 0.594849 0.021468
vt 0.594849 0.010465
vt 0.594849 0.010465
vt 0.408330 0.239535
vt 0.408330 0.239535
vt 0.385465 0.239535
vt 0.594849 0.010465
vt 0.614534 0.010465
vt 0.385465 0.021467
vt 0.385465 0.021468
vt 0.385465 0.010465
vt 0.385465 0.230750
vt 0.614534 0.021468
vt 0.614534 0.021468
vt 0.594849 0.230750
vt 0.625000 0.240413
vt 0.375000 0.012007
vt 0.125000 0.500000
vt 0.125000 0.512007
vt 0.375000 0.512007
vt 0.375000 0.500000
vt 0.600046 0.750000
vt 0.600047 0.762007
vt 0.625000 0.762007
vt 0.375000 0.509587
vt 0.625000 0.509587
vt 0.375000 0.762007
vt 0.375000 0.990413
vt 0.396484 0.990413
vt 0.396484 0.762007
vt 0.396484 0.750000
vt 0.408330 0.230750
vt 0.408330 0.021468
vt 0.408330 0.021468
vt 0.385465 0.021468
vt 0.408330 0.010465
vt 0.594849 0.239535
vt 0.408330 0.010465
vt 0.603516 0.000000
vt 0.399953 0.250000
vt 0.625000 0.500000
vt 0.625000 0.521484
vt 0.875000 0.521484
vt 0.875000 0.500000
vt 0.375000 1.000000
vt 0.396484 1.000000
vt 0.375000 0.250000
vt 0.375000 0.274954
vt 0.625000 0.274954
vt 0.625000 0.250000
vt 0.594849 0.230750
vt 0.594849 0.239535
vt 0.614534 0.239535
vt 0.614534 0.230750
vt 0.614534 0.010465
vt 0.385465 0.010465
vt 0.385465 0.230750
vt 0.385465 0.239535
vt 0.408330 0.239535
vt 0.408330 0.230750
vn -1.0000 0.0000 0.0000
vn 0.0000 0.0000 1.0000
vn 0.0000 1.0000 0.0000
vn 1.0000 0.0000 0.0000
vn 0.0000 0.0000 -1.0000
vn 0.0000 -1.0000 0.0000
vn 0.9996 -0.0270 0.0000
vn 0.0000 -0.0199 0.9998
vn -0.9995 -0.0314 0.0000
vn 0.0000 -0.0168 -0.9999
vn 0.9995 -0.0314 0.0000
vn 0.0000 -0.0159 -0.9999
vn -0.9996 -0.0270 0.0000
vn 0.0000 -0.0159 0.9999
vn 0.0000 -0.0168 0.9999
vn 0.9994 -0.0332 0.0000
vn -0.9994 -0.0332 0.0000
vn 0.0000 -0.0199 -0.9998
usemtl Material
s off
f 27/1/1 31/2/1 14/3/1 7/4/1
f 37/5/2 8/6/2 10/7/2 36/8/2
f 17/9/1 6/10/1 12/11/1 22/12/1
f 55/13/3 38/14/3 4/15/3 23/16/3
f 23/17/4 4/18/4 9/19/4 20/20/4
f 33/21/5 2/22/5 11/23/5 40/24/5
f 42/25/6 36/26/6 10/27/6 7/4/6
f 26/28/6 20/29/6 9/30/6 3/31/6
f 28/32/6 22/33/6 12/34/6 5/35/6
f 44/36/6 40/37/6 11/38/6 1/39/6
f 49/40/7 71/41/7 70/42/7 47/43/7
f 41/44/2 45/45/2 13/46/2 3/31/2
f 43/47/5 47/43/5 16/48/5 5/35/5
f 25/49/4 29/50/4 15/51/4 1/39/4
f 3/31/4 13/46/4 30/52/4 26/28/4
f 26/28/4 30/52/4 29/50/4 25/49/4
f 32/53/8 61/54/8 71/41/8 49/40/8
f 49/40/6 51/55/6 31/2/6 32/53/6
f 7/4/6 10/27/6 21/56/6 27/1/6
f 27/1/6 21/56/6 22/33/6 28/32/6
f 1/39/6 11/38/6 19/57/6 25/49/6
f 25/49/6 19/57/6 20/29/6 26/28/6
f 2/58/4 24/59/4 19/60/4 11/61/4
f 24/59/4 23/17/4 20/20/4 19/60/4
f 33/62/3 53/63/3 24/64/3 2/22/3
f 53/63/3 55/13/3 23/16/3 24/64/3
f 8/6/1 18/65/1 21/66/1 10/7/1
f 18/65/1 17/9/1 22/12/1 21/66/1
f 5/35/1 16/48/1 32/53/1 28/32/1
f 28/32/1 32/53/1 31/2/1 27/1/1
f 17/67/3 18/68/3 56/69/3 54/70/3
f 54/70/3 56/69/3 55/13/3 53/63/3
f 6/10/3 17/67/3 54/70/3 34/71/3
f 34/71/3 54/70/3 53/63/3 33/62/3
f 29/50/6 30/52/6 52/72/6 50/73/6
f 50/73/6 52/72/6 51/55/6 49/40/6
f 50/73/8 67/74/8 65/75/8 29/50/8
f 48/76/6 50/73/6 49/40/6 47/43/6
f 1/39/5 15/51/5 48/76/5 44/36/5
f 44/36/5 48/76/5 47/43/5 43/47/5
f 7/4/2 14/3/2 46/77/2 42/25/2
f 42/25/2 46/77/2 45/45/2 41/44/2
f 48/76/9 63/78/9 67/74/9 50/73/9
f 52/72/6 45/45/6 46/77/6 51/55/6
f 5/35/6 12/34/6 39/79/6 43/47/6
f 43/47/6 39/79/6 40/37/6 44/36/6
f 3/31/6 9/30/6 35/80/6 41/44/6
f 41/44/6 35/80/6 36/26/6 42/25/6
f 6/81/5 34/82/5 39/83/5 12/84/5
f 34/82/5 33/21/5 40/24/5 39/83/5
f 18/68/3 8/85/3 37/86/3 56/69/3
f 56/69/3 37/86/3 38/14/3 55/13/3
f 4/87/2 38/88/2 35/89/2 9/90/2
f 38/88/2 37/5/2 36/8/2 35/89/2
f 72/91/6 57/92/6 58/93/6 66/94/6
f 70/42/6 71/41/6 61/54/6 62/95/6
f 64/96/6 65/75/6 67/74/6 63/78/6
f 59/97/6 60/98/6 69/99/6 68/100/6
f 30/52/10 59/97/10 68/100/10 52/72/10
f 29/50/11 65/75/11 64/96/11 15/51/11
f 51/55/12 72/91/12 66/94/12 31/2/12
f 31/2/13 66/94/13 58/93/13 14/3/13
f 14/3/14 58/93/14 57/92/14 46/77/14
f 45/45/15 69/99/15 60/98/15 13/46/15
f 13/46/16 60/98/16 59/97/16 30/52/16
f 52/72/17 68/100/17 69/99/17 45/45/17
f 16/48/13 62/95/13 61/54/13 32/53/13
f 47/43/18 70/42/18 62/95/18 16/48/18
f 46/77/7 57/92/7 72/91/7 51/55/7
f 15/51/18 64/96/18 63/78/18 48/76/18
